HIERARCHY
ROOT Hips
{
	OFFSET -0.001795 -0.223333 0.028219
	CHANNELS 6 Xposition Yposition Zposition Zrotation Yrotation Xrotation 
	JOINT LeftUpLeg
	{
		OFFSET 0.069520 -0.091406 -0.006815
		CHANNELS 3 Zrotation Yrotation Xrotation
		JOINT LeftLeg
		{
			OFFSET 0.034277 -0.375199 -0.004496
			CHANNELS 3 Zrotation Yrotation Xrotation
			JOINT LeftFoot
			{
				OFFSET -0.013596 -0.397961 -0.043693
				CHANNELS 3 Zrotation Yrotation Xrotation
				JOINT LeftToe
				{
					OFFSET 0.026358 -0.055791 0.119288
					CHANNELS 3 Zrotation Yrotation Xrotation
					End Site
					{
						OFFSET 0.000000 0.000000 0.000000
					}
				}
			}
		}
	}
	JOINT RightUpLeg
	{
		OFFSET -0.067670 -0.090522 -0.004320
		CHANNELS 3 Zrotation Yrotation Xrotation
		JOINT RightLeg
		{
			OFFSET -0.038290 -0.382569 -0.008850
			CHANNELS 3 Zrotation Yrotation Xrotation
			JOINT RightFoot
			{
				OFFSET 0.015774 -0.398415 -0.042312
				CHANNELS 3 Zrotation Yrotation Xrotation
				JOINT RightToe
				{
					OFFSET -0.025372 -0.048144 0.123348
					CHANNELS 3 Zrotation Yrotation Xrotation
					End Site
					{
						OFFSET 0.000000 0.000000 0.000000
					}
				}
			}
		}
	}
	JOINT Spine
	{
		OFFSET -0.002533 0.108963 -0.026696
		CHANNELS 3 Zrotation Yrotation Xrotation
		JOINT Spine1
		{
			OFFSET 0.005487 0.135180 0.001092
			CHANNELS 3 Zrotation Yrotation Xrotation
			JOINT Spine2
			{
				OFFSET 0.001457 0.052922 0.025425
				CHANNELS 3 Zrotation Yrotation Xrotation
				JOINT Neck
				{
					OFFSET -0.002778 0.213870 -0.042857
					CHANNELS 3 Zrotation Yrotation Xrotation
					JOINT Head
					{
						OFFSET 0.005152 0.064970 0.051349
						CHANNELS 3 Zrotation Yrotation Xrotation
						End Site
						{
							OFFSET 0.000000 0.000000 0.000000
						}
					}
				}
				JOINT LeftShoulder
				{
					OFFSET 0.078845 0.121749 -0.034090
					CHANNELS 3 Zrotation Yrotation Xrotation
					JOINT LeftArm
					{
						OFFSET 0.090977 0.030469 -0.008868
						CHANNELS 3 Zrotation Yrotation Xrotation
						JOINT LeftForeArm
						{
							OFFSET 0.259612 -0.012772 -0.027456
							CHANNELS 3 Zrotation Yrotation Xrotation
							JOINT LeftHand
							{
								OFFSET 0.249234 0.008986 -0.001171
								CHANNELS 3 Zrotation Yrotation Xrotation
								End Site
								{
									OFFSET 0.000000 0.000000 0.000000
								}
							}
						}
					}
				}
				JOINT RightShoulder
				{
					OFFSET -0.081759 0.118833 -0.038615
					CHANNELS 3 Zrotation Yrotation Xrotation
					JOINT RightArm
					{
						OFFSET -0.096012 0.032551 -0.009143
						CHANNELS 3 Zrotation Yrotation Xrotation
						JOINT RightForeArm
						{
							OFFSET -0.253742 -0.013329 -0.021401
							CHANNELS 3 Zrotation Yrotation Xrotation
							JOINT RightHand
							{
								OFFSET -0.255298 0.007772 -0.005559
								CHANNELS 3 Zrotation Yrotation Xrotation
								End Site
								{
									OFFSET 0.000000 0.000000 0.000000
								}
							}
						}
					}
				}
			}
		}
	}
}
MOTION
Frames: 10
Frame Time: 0.050000
0.000000 0.956241 0.000000 -3.038815 -4.851662 13.164873 7.319227 -0.560059 -15.249705 0.524206 0.058216 -3.080707 0.642581 5.347100 13.489812 0.000000 0.000000 0.000000 0.184573 1.623048 -15.437198 -4.574075 0.289964 -1.643412 1.061064 -4.167567 13.121407 0.000000 0.000000 0.000000 0.886440 -0.400539 7.503189 -4.997239 2.433761 2.685576 -9.900581 6.730512 4.730484 14.336399 -9.694756 -6.376022 0.000000 0.000000 0.000000 -8.892702 -28.472590 10.815685 -43.301828 -27.947640 4.801898 3.020364 -54.695284 -0.145351 0.000000 0.000000 0.000000 3.156254 16.223238 6.621532 39.791927 6.173110 -1.822117 99.620065 57.672286 71.929799 0.000000 0.000000 0.000000 
-0.000164 0.955815 0.001169 -2.667023 -6.283631 13.419298 6.708744 -0.563749 -13.864097 0.287449 0.154681 -5.053154 2.065927 7.610975 14.331657 0.000000 0.000000 0.000000 -0.037382 1.773947 -16.722405 -4.894582 0.459894 0.185771 0.636570 -4.151614 10.579834 0.000000 0.000000 0.000000 0.225028 -0.272249 6.388558 -4.231861 2.018084 1.216930 -11.644490 6.875469 4.488339 18.056644 -13.120340 -4.799901 0.000000 0.000000 0.000000 -6.978713 -28.029155 10.385348 -44.055068 -30.552510 5.823543 8.706559 -60.549300 -3.505563 0.000000 0.000000 0.000000 4.987733 14.029976 5.935019 35.637044 1.611952 -2.963431 105.290577 47.390500 65.016334 0.000000 0.000000 0.000000 
-0.000315 0.955053 0.003281 -2.763009 -5.776189 12.697285 7.605779 -0.473116 -13.293733 -0.391972 0.157753 -3.702337 1.300850 6.136186 12.809160 0.000000 0.000000 0.000000 0.347398 1.657369 -15.534619 -5.321727 0.478857 -0.123036 1.297118 -2.654744 10.343395 0.000000 0.000000 0.000000 1.273727 -0.367833 5.935018 -3.541420 1.640909 -0.329591 -12.832589 6.225033 4.895698 18.728029 -13.749765 -4.706932 0.000000 0.000000 0.000000 -7.809296 -28.376805 10.682807 -40.860763 -33.169672 6.151518 10.249519 -63.728655 -4.625876 0.000000 0.000000 0.000000 3.429092 11.748317 4.749665 34.236641 -4.073369 -4.197573 116.171200 39.163329 64.690280 0.000000 0.000000 0.000000 
-0.000530 0.955174 0.005984 -2.815086 -6.397910 13.322672 7.600990 -0.463409 -12.887352 -0.045059 0.156599 -4.472063 2.022560 7.378059 13.587980 0.000000 0.000000 0.000000 0.633728 1.707983 -15.737467 -4.879911 0.417295 -0.298287 1.288516 -2.413217 9.619072 0.000000 0.000000 0.000000 1.604435 -0.297087 3.839599 -3.162914 1.441949 -1.346492 -12.775151 3.935443 5.645392 19.381880 -14.874296 -3.095856 0.000000 0.000000 0.000000 -5.317364 -27.303312 10.299983 -41.613874 -36.109664 7.309636 16.223557 -71.089139 -8.745999 0.000000 0.000000 0.000000 1.707487 9.984628 3.729258 31.474535 -6.353314 -4.321753 122.950280 33.489379 61.131554 0.000000 0.000000 0.000000 
-0.001036 0.954287 0.009853 -2.784500 -6.836236 12.393369 7.526776 -0.429485 -11.597256 -0.179596 0.148092 -3.936908 2.292694 7.504974 12.167150 0.000000 0.000000 0.000000 0.485616 1.602014 -14.905885 -5.072188 0.445315 -0.165638 1.814392 -1.313869 9.480184 0.000000 0.000000 0.000000 1.655414 -0.269200 3.349702 -2.111281 0.964670 -1.979862 -13.123781 2.393240 6.138630 19.450088 -14.660101 -3.866473 0.000000 0.000000 0.000000 -4.185127 -25.917955 9.762533 -40.867201 -38.602260 8.066220 25.645892 -77.813873 -16.911333 0.000000 0.000000 0.000000 0.493826 7.876269 2.821828 30.794065 -9.835258 -4.958652 127.060987 30.233826 58.511742 0.000000 0.000000 0.000000 
-0.001149 0.953929 0.014358 -2.771766 -7.501013 11.877495 7.587064 -0.381984 -9.962678 -0.287571 0.169365 -4.286376 2.932756 8.579163 12.752546 0.000000 0.000000 0.000000 0.227104 1.502362 -14.166155 -4.949117 0.408675 -0.418647 2.045521 -0.970296 9.575901 0.000000 0.000000 0.000000 1.853972 -0.233628 2.497964 -1.898785 0.870266 -1.955283 -12.497243 1.398480 5.969539 18.995009 -14.337436 -3.638285 0.000000 0.000000 0.000000 -3.660907 -25.359024 9.612236 -41.374936 -39.193204 8.534373 35.128535 -84.331247 -27.070027 0.000000 0.000000 0.000000 -1.011317 6.169926 2.197924 31.062809 -13.050635 -5.694863 129.446161 27.342131 54.371322 0.000000 0.000000 0.000000 
-0.000842 0.953614 0.018814 -2.588051 -7.953003 10.785838 7.357178 -0.346160 -8.488551 -0.321306 0.164397 -4.053538 2.677620 8.053165 12.342342 0.000000 0.000000 0.000000 0.151502 1.370496 -13.055969 -5.190155 0.460124 -0.067232 2.360859 -0.185016 9.223294 0.000000 0.000000 0.000000 2.500439 -0.209536 1.549858 -1.573112 0.721291 -2.258299 -12.458613 0.768209 6.783990 18.796171 -13.995980 -4.491865 0.000000 0.000000 0.000000 -3.752606 -23.746561 9.067384 -41.882865 -39.788650 8.905782 3.326740 -89.183000 2.437239 0.000000 0.000000 0.000000 -1.473736 4.398053 1.605455 30.115203 -14.640218 -5.896091 130.692107 27.352711 54.765865 0.000000 0.000000 0.000000 
0.000053 0.953394 0.022220 -2.540012 -9.056580 10.187300 7.026427 -0.317878 -7.671736 -0.398653 0.151274 -3.443902 2.817360 8.077344 11.811314 0.000000 0.000000 0.000000 -0.252085 1.280692 -12.399442 -5.063035 0.465317 0.203663 2.739384 0.823149 8.621188 0.000000 0.000000 0.000000 3.117834 -0.164528 0.514835 -1.583662 0.729679 -1.790440 -11.947550 0.832178 6.742874 18.219352 -13.315075 -5.312605 0.000000 0.000000 0.000000 -4.527376 -22.876952 8.902474 -43.284634 -39.004571 9.015557 -97.817199 -86.546106 100.469232 0.000000 0.000000 0.000000 -2.244302 3.345360 1.309359 30.355220 -15.160126 -6.092060 130.578123 27.309682 53.921195 0.000000 0.000000 0.000000 
0.001002 0.953540 0.024272 -2.384585 -9.689583 9.559238 6.581575 -0.295184 -6.526628 -0.267211 0.143539 -3.573839 2.857226 8.095508 11.911444 0.000000 0.000000 0.000000 -0.538913 1.178013 -11.576928 -4.898286 0.438022 0.099331 3.076624 1.300433 8.875893 0.000000 0.000000 0.000000 3.674366 -0.126356 -0.183030 -1.543005 0.711504 -1.689183 -11.789903 0.972365 7.065185 17.848312 -12.914262 -5.886953 0.000000 0.000000 0.000000 -5.085529 -22.090278 8.690772 -44.695563 -38.830086 9.322696 -76.138931 -82.022049 74.427385 0.000000 0.000000 0.000000 -2.136458 2.692865 1.091270 29.726418 -14.741328 -5.892647 128.581678 27.344034 51.514216 0.000000 0.000000 0.000000 
0.001685 0.953485 0.025151 -2.254803 -10.053717 9.011034 6.364184 -0.272282 -5.830172 -0.558446 0.165526 -3.393555 3.181947 8.550287 11.500449 0.000000 0.000000 0.000000 -0.658386 1.101733 -10.919485 -4.937745 0.446558 0.165741 3.369609 2.212246 8.351003 0.000000 0.000000 0.000000 4.167953 -0.089070 -0.735842 -1.213204 0.562770 -1.637170 -11.727781 0.921361 7.346998 17.474730 -12.485729 -6.555312 0.000000 0.000000 0.000000 -5.371458 -21.648468 8.583783 -45.545044 -37.828007 9.113271 -71.709771 -77.422703 65.913432 0.000000 0.000000 0.000000 -1.971806 2.487038 1.012860 28.798122 -14.000928 -5.553686 126.332363 27.816425 49.763901 0.000000 0.000000 0.000000 
